# xmcd
#
# Track frame offsets:
#  182
#  25732
#  43805
#  62860
#  84385
#  107932
#  125477
#  156680
#  172057
#  188932
#  203557
#  221782
#  236182
#  250130
#  267380
#  285307
#
# Disc length: 4067 seconds
#
# Revision: 2
# Processed by: cddbd v1.5.2PL0 Copyright (c) Steve Scherf et al.
# Submitted via: Collectorz.com_Music_Collector 6.11
#
DISCID=f60fe110
DTITLE=Gumbo Fever - Live at the Schuss Bar
DYEAR=1997
DGENRE=
TTITLE0=Good Morning Blues
TTITLE1=Five Long Years
TTITLE2=Tell Me Mama
TTITLE3=Since I Fell For You
TTITLE4=Mean Woman Blues
TTITLE5=If You Losse Your Money
TTITLE6=Slip Away
TTITLE7=Bad Whiskey
TTITLE8=Mobile Line
TTITLE9=Backwater Blues
TTITLE10=Bring It On Home
TTITLE11=Rock Island Line
TTITLE12=On The Sunny Side Of The Street
TTITLE13=Baby, Don't You Love Me No More
TTITLE14=Warm And Tender Love
TTITLE15=How Long
EXTD=
EXTT0=
EXTT1=
EXTT2=
EXTT3=
EXTT4=
EXTT5=
EXTT6=
EXTT7=
EXTT8=
EXTT9=
EXTT10=
EXTT11=
EXTT12=
EXTT13=
EXTT14=
EXTT15=
PLAYORDER=
